HIERARCHY
ROOT Hips
{
	OFFSET 0.000000 0.000000 0.000000 
	CHANNELS 6 Xposition Yposition Zposition Yrotation Zrotation Xrotation 
	JOINT Lumbar
	{
		OFFSET 0.000000 0.000000 0.000000 
		CHANNELS 3 Zrotation Xrotation Yrotation
		JOINT Neck
		{
			OFFSET 0.000000 0.445665 0.000000 
			CHANNELS 3 Zrotation Xrotation Yrotation
			End Site
			{
				OFFSET 0.000000 0.227535 0.000000 
			}
		}
		JOINT RightShoulder
		{
			OFFSET 0.019635 0.377685 0.194865 
			CHANNELS 3 Zrotation Xrotation Yrotation
			JOINT RightElbow
			{
				OFFSET 0.000000 -0.243375 0.000000 
				CHANNELS 2 Zrotation Yrotation
				JOINT RightWrist
				{
					OFFSET 0.000000 -0.264825 0.000000 
					CHANNELS 2 Zrotation Xrotation
					End Site
					{
						OFFSET 0.006600 -0.176220 0.000990 
					}
				}
			}
		}
		JOINT LeftShoulder
		{
			OFFSET 0.019635 0.377685 -0.194865 
			CHANNELS 3 Zrotation Xrotation Yrotation
			JOINT LeftElbow
			{
				OFFSET 0.000000 -0.243375 0.000000 
				CHANNELS 2 Zrotation Yrotation
				JOINT LeftWrist
				{
					OFFSET 0.000000 -0.264825 0.000000 
					CHANNELS 2 Zrotation Xrotation
					End Site
					{
						OFFSET 0.006600 -0.176220 -0.000990 
					}
				}
			}
		}
	}
	JOINT RightHip
	{
		OFFSET 0.052140 -0.069960 0.075570 
		CHANNELS 3 Zrotation Xrotation Yrotation
		JOINT RightKnee
		{
			OFFSET 0.000000 -0.402270 0.000000 
			CHANNELS 1 Zrotation
			JOINT RightAnkle
			{
				OFFSET 0.000000 -0.404085 0.000000 
				CHANNELS 3 Zrotation Xrotation Yrotation
				End Site
				{
					OFFSET 0.204105 -0.089430 0.008415 
				}
			}
		}
	}
	JOINT LeftHip
	{
		OFFSET 0.052140 -0.069960 -0.075570 
		CHANNELS 3 Zrotation Xrotation Yrotation
		JOINT LeftKnee
		{
			OFFSET 0.000000 -0.402270 0.000000 
			CHANNELS 1 Zrotation
			JOINT LeftAnkle
			{
				OFFSET 0.000000 -0.404085 0.000000 
				CHANNELS 3 Zrotation Xrotation Yrotation
				End Site
				{
					OFFSET 0.204105 -0.089430 -0.008415 
				}
			}
		}
	}
}
MOTION
Frames: 20
Frame Time: 0.02
-0.05778 0.94992 -0.49685 234.83507 0 -1.35429 11.61663 -2.30705 2.86466 -17.75292 0.44759 2.40471 14.07895 -17.12132 -12.32921 132.41656 49.47445 -79.6968 -22.95574 17.28856 15.83565 15.87259 101.67505 -41.7463 71.88418 6.94463 13.13873 7.02443 10.34916 -59.39815 5.05042 -6.07623 -12.17123 5.33664 -5.72322 -13.43921 -19.50989 7.71738 7.7986 14.08962
-0.06425 0.95054 -0.4894 235.54961 0 -1.72806 11.03013 -1.96657 2.3523 -17.46714 0.8823 2.23361 13.63406 -17.40376 -12.5407 133.00903 52.53508 -79.69976 -22.98911 15.9135 14.98334 18.02725 102.09468 -39.65113 73.2051 7.26579 14.41601 7.18792 11.8382 -57.04756 4.72649 -5.93744 -13.1595 4.72037 -5.30189 -13.99538 -19.40569 8.08715 8.02545 14.02124
-0.07088 0.95095 -0.48215 236.296 0 -2.07199 10.37819 -1.62049 1.7553 -16.89231 1.42456 2.04918 12.97035 -17.77123 -12.84877 133.55585 56.45937 -79.69781 -22.97311 14.04143 14.09749 20.6899 102.47734 -37.17486 74.94149 7.66724 15.43143 7.27594 13.74009 -53.78612 4.22096 -5.68911 -14.05713 4.13223 -4.88218 -14.54626 -19.33826 8.46819 8.27144 13.95071
-0.07749 0.95143 -0.47479 237.02505 0 -2.4213 9.76436 -1.28107 1.20757 -16.44343 1.91381 1.87744 12.38183 -18.10133 -13.06363 134.09885 59.9611 -79.69225 -22.89416 12.41782 13.20353 23.07094 102.82496 -34.84364 76.42976 8.04925 16.54219 7.37891 15.48933 -50.90221 3.80684 -5.50122 -14.94984 3.52614 -4.46508 -15.09846 -19.24875 8.8435 8.50994 13.88126
-0.08385 0.95202 -0.46756 237.76625 0 -2.80768 9.10858 -0.92082 0.61129 -16.00619 2.42028 1.67471 11.87696 -18.42939 -13.47842 134.75621 63.64196 -79.7147 -23.17006 10.67514 12.40785 25.69364 103.39967 -32.61772 78.15662 8.35796 17.75127 7.56116 17.10957 -48.1228 3.36282 -5.27537 -16.05638 2.94429 -4.03115 -15.65472 -19.18287 9.22025 8.74239 13.81057
-0.09078 0.95232 -0.46008 238.49059 0 -3.10989 8.52912 -0.60347 0.09745 -15.48373 2.91543 1.53406 11.16049 -18.77739 -13.50772 135.15497 67.08905 -79.67346 -22.7021 9.07605 11.4053 27.90941 103.48568 -30.09225 79.49531 8.84086 18.69343 7.56562 19.08056 -44.94188 2.93471 -5.09883 -16.68967 2.31806 -3.6321 -16.20295 -19.0779 9.59772 8.99323 13.74317
-0.0991 0.95184 -0.45194 239.15011 0 -3.17355 8.15223 -0.41169 -0.1723 -14.75409 3.36614 1.57306 9.81909 -19.20034 -12.38965 134.92197 70.25717 -79.48861 -20.13276 7.93732 9.77036 29.05 102.28379 -26.77336 79.58714 9.75762 18.96818 7.04378 22.026 -40.707 2.59919 -5.09854 -16.02701 1.55923 -3.34873 -16.71233 -18.83628 9.96631 9.27888 13.67431
-0.10803 0.95107 -0.44354 239.79386 0 -3.15574 7.85923 -0.26265 -0.35542 -13.95697 3.79939 1.67411 8.28936 -19.63358 -10.89213 134.41921 73.0622 -79.23085 -16.828 6.97213 7.94113 29.7325 100.58562 -23.18095 79.28546 10.84916 18.98193 6.35526 25.28741 -36.13544 2.28427 -5.14868 -14.89162 0.75586 -3.09735 -17.21717 -18.55885 10.3365 9.5842 13.6109
-0.11678 0.95041 -0.43522 240.45094 0 -3.18314 7.54476 -0.09106 -0.57453 -13.22058 4.23232 1.74456 6.91162 -20.0346 -9.6071 133.98907 75.64209 -78.99014 -13.89842 5.96996 6.24456 30.50611 99.07376 -19.75064 79.21658 11.88208 19.11274 5.77799 28.33481 -31.83334 1.95592 -5.16574 -13.97562 -0.02658 -2.81901 -17.73548 -18.30829 10.71173 9.8882 13.55217
-0.12512 0.94982 -0.42708 241.08111 0 -3.17392 7.15897 0.06701 -0.80919 -12.34985 4.70421 1.82646 5.25388 -20.55197 -8.15475 133.75681 79.85888 -78.83025 -10.79259 4.77959 4.35684 31.78009 97.70727 -16.13675 78.94647 12.84131 19.2438 5.04836 31.70053 -27.00809 1.63792 -5.22057 -13.03265 -0.81458 -2.59307 -18.20477 -18.0079 11.06426 10.16174 13.46303
-0.13447 0.94904 -0.4185 241.76567 0 -3.22337 6.94083 0.24373 -0.99195 -11.7432 5.08893 1.89714 4.12727 -20.83195 -6.96152 133.06344 80.61941 -78.46837 -7.88184 4.02101 2.82502 31.91127 95.94447 -12.8585 78.98132 13.98023 19.31219 4.59736 34.46472 -23.20339 1.30639 -5.21188 -12.04091 -1.59732 -2.2656 -18.77605 -17.81038 11.46271 10.50187 13.43869
-0.14651 0.94777 -0.40875 242.58274 0 -3.44235 7.17977 0.4756 -1.03275 -11.91463 5.23987 1.9417 4.60547 -20.42156 -6.56034 131.0386 71.48952 -77.71398 -5.67675 4.48594 2.29436 28.87114 93.00533 -10.46242 80.08706 15.69617 19.30289 4.95703 35.55782 -22.3149 0.92672 -5.00049 -10.97594 -2.39244 -1.65114 -19.6198 -17.83849 11.99988 11.03023 13.5893
-0.15954 0.94633 -0.39857 243.45895 0 -3.72506 7.5819 0.72859 -1.02717 -12.34993 5.3021 1.96931 5.61038 -19.77691 -6.4362 128.58296 58.97499 -76.73657 -3.69859 5.36946 2.1345 24.72052 89.72361 -8.43569 81.48851 17.56467 19.23479 5.60249 36.02026 -22.46631 0.53504 -4.72663 -9.88836 -3.17243 -0.93404 -20.56647 -17.98524 12.57989 11.62184 13.80433
-0.17211 0.94501 -0.3886 244.32202 0 -3.98759 7.90028 0.97678 -1.05588 -12.64428 5.4034 1.99141 6.31267 -19.26103 -6.19464 126.40548 48.28577 -75.7579 -1.62205 6.01406 1.82368 21.15626 86.73106 -6.3158 82.66298 19.28033 19.17454 6.118 36.72482 -22.13672 0.15308 -4.4919 -8.84751 -3.93645 -0.26203 -21.47513 -18.11957 13.13334 12.18003 13.99302
-0.18478 0.9435 -0.37853 245.12653 0 -4.21254 8.26293 1.20465 -1.02747 -13.02354 5.51174 2.07083 7.26814 -18.65381 -5.90158 123.86846 36.35483 -75.18825 0.51072 6.86492 1.43054 17.22106 83.1536 -3.87342 84.2065 21.34966 19.18546 6.63064 37.62726 -21.8325 -0.24771 -4.21405 -7.63765 -4.8041 0.40589 -22.35414 -18.07114 13.72071 12.76394 14.17403
-0.19746 0.94236 -0.36859 246.06731 0 -4.52903 8.56989 1.47863 -1.10609 -13.29118 5.58163 2.02679 7.83282 -18.17801 -5.78967 121.9844 26.23284 -73.74184 2.44972 7.38969 1.30124 13.8137 80.72458 -2.19075 85.06718 22.72258 19.03664 7.2159 37.96516 -21.7241 -0.61056 -4.00984 -6.77884 -5.44464 1.10258 -23.30999 -18.43997 14.24265 13.30241 14.38056
-0.21008 0.94216 -0.359 247.36923 0 -5.10815 8.69261 1.89001 -1.50886 -13.17327 5.59315 1.64 7.1122 -18.15032 -6.08434 121.98346 21.75125 -69.69768 4.01887 6.85699 1.79467 12.02475 81.50763 -2.5479 83.88009 22.079 18.47096 7.96178 36.88254 -21.93008 -0.88105 -4.03057 -6.9131 -5.52196 1.89259 -24.53176 -19.86199 14.61619 13.75774 14.69365
-0.22265 0.94234 -0.34957 248.80612 0 -5.77268 8.75139 2.34436 -2.01771 -12.93701 5.565 1.13097 5.99463 -18.25906 -6.55796 122.65871 19.24436 -64.82383 5.37726 5.99081 2.54378 10.82767 83.4664 -3.65293 82.0141 20.73843 17.74621 8.76601 35.25514 -22.29406 -1.11015 -4.1263 -7.40055 -5.35974 2.70091 -25.81134 -21.71138 14.91489 14.15511 15.02254
-0.23516 0.9424 -0.34015 250.18222 0 -6.38209 8.8329 2.76932 -2.46765 -12.76322 5.53702 0.68075 5.11163 -18.28527 -6.96916 123.04481 15.95318 -60.4801 6.75572 5.31262 3.18777 9.43531 84.92064 -4.39492 80.5201 19.7535 17.08895 9.52482 33.8856 -22.5688 -1.34825 -4.18311 -7.71665 -5.26753 3.47542 -27.01431 -23.41333 15.21923 14.53991 15.30761
-0.24809 0.94225 -0.3304 251.55951 0 -7.06329 8.94716 3.23687 -2.96288 -12.5605 5.57823 0.21371 4.02189 -18.38444 -7.31209 123.34694 12.05994 -55.47658 8.44388 4.49631 3.80127 7.69525 86.2467 -5.24463 78.76916 18.61177 16.44905 10.37375 32.44975 -22.95221 -1.62826 -4.25751 -8.07697 -5.33901 4.36103 -28.43853 -24.92884 15.6429 15.08769 15.74129
